# xmcd CD database file
#
# Track frame offsets:
#	150
#	14170
#	38517
#	53439
#	83130
#	118267
#	158566
#	178739
#	199248
#	217686
#	234506
#	250481
#	276017
#
# Disc length: 3978 seconds
#
# Revision: 0
# Processed by: cddbd v1.5.2PL0 Copyright (c) Steve Scherf et al.
# Submitted via: CDex 1.51
#
DISCID=aa0f880d
DTITLE=nina simone - remixed and reimagined
DYEAR=2006
DGENRE=Jazz
TTITLE0=01 I can´t see nobody
TTITLE1=02 funkier than a mosquito´s tweeter
TTITLE2=03 ain´t got no - I got life
TTITLE3=04 save me
TTITLE4=05 turn me on
TTITLE5=06 here comes the sun
TTITLE6=07 westwind
TTITLE7=08 go to hell
TTITLE8=09 my man´s gone now
TTITLE9=10 the look of love
TTITLE10=11 o-o-h child
TTITLE11=12 to love somebody
TTITLE12=13 obeah woman
EXTD=YEAR: 2006
EXTT0=
EXTT1=
EXTT2=
EXTT3=
EXTT4=
EXTT5=
EXTT6=
EXTT7=
EXTT8=
EXTT9=
EXTT10=
EXTT11=
EXTT12=
PLAYORDER=
